<svg width="22" height="22" viewBox="0 0 22 22" fill="none" xmlns="http://www.w3.org/2000/svg">
  <g clip-path="url(#clip0_700_60605)">
    <path
      d="M9.30755 0H0.846223C0.378812 0 0 0.378812 0 0.846223V9.30755C0 9.77497 0.378812 10.1538 0.846223 10.1538H9.30755C9.77497 10.1538 10.1538 9.77497 10.1538 9.30755V0.846223C10.1538 0.378812 9.77497 0 9.30755 0Z"
      fill="#333333" />
    <path
      d="M21.1537 0H12.6924C12.225 0 11.8462 0.378812 11.8462 0.846223V9.30755C11.8462 9.77497 12.225 10.1538 12.6924 10.1538H21.1537C21.6212 10.1538 22 9.77497 22 9.30755V0.846223C22 0.378812 21.6212 0 21.1537 0ZM20.3075 8.46133H13.5386V1.69245H20.3075V8.46133Z"
      fill="#333333" />
    <path
      d="M9.30755 11.8463H0.846223C0.378812 11.8463 0 12.2251 0 12.6925V21.1538C0 21.6212 0.378812 22 0.846223 22H9.30755C9.77497 22 10.1538 21.6212 10.1538 21.1538V12.6925C10.1538 12.2242 9.77497 11.8463 9.30755 11.8463ZM3.99606 20.3076C4.14161 20.0581 4.23112 19.7715 4.23112 19.4614C4.23112 18.5265 3.47349 17.7689 2.53867 17.7689C2.22857 17.7689 1.94197 17.8584 1.69245 18.004V15.8423C1.94197 15.9879 2.22857 16.0774 2.53867 16.0774C3.47349 16.0774 4.23112 15.3197 4.23112 14.3849C4.23112 14.0748 4.14161 13.7882 3.99606 13.5387H6.15772C6.01216 13.7882 5.92266 14.0748 5.92266 14.3849C5.92266 15.3197 6.68028 16.0774 7.61511 16.0774C7.92521 16.0774 8.2118 15.9879 8.46133 15.8423V18.004C8.2118 17.8584 7.92521 17.7689 7.61511 17.7689C6.68028 17.7689 5.92266 18.5265 5.92266 19.4614C5.92266 19.7715 6.01216 20.0581 6.15772 20.3076H3.99606Z"
      fill="#333333" />
    <path
      d="M21.1537 11.8463H12.6924C12.225 11.8463 11.8462 12.2251 11.8462 12.6925V16.9227V21.1529C11.8462 21.6203 12.225 21.9991 12.6924 21.9991H16.9226H21.1528C21.6203 21.9991 21.9991 21.6203 21.9991 21.1529V12.6916C22 12.2242 21.6212 11.8463 21.1537 11.8463ZM13.5386 17.2735L17.2734 13.5387H19.1114L13.5386 19.1115V17.2735ZM13.5386 13.5387H14.8803L13.5386 14.8804V13.5387ZM20.3075 14.7348V16.5719L16.5727 20.3076H14.7347L20.3075 14.7348ZM20.3075 20.3076H18.965L20.3075 18.965V20.3076Z"
      fill="#333333" />
    <path
      d="M5.07721 18.6151C6.01192 18.6151 6.76966 17.8574 6.76966 16.9227C6.76966 15.988 6.01192 15.2302 5.07721 15.2302C4.1425 15.2302 3.38477 15.988 3.38477 16.9227C3.38477 17.8574 4.1425 18.6151 5.07721 18.6151Z"
      fill="#333333" />
  </g>
  <defs>
    <clipPath id="clip0_700_60605">
      <rect width="22" height="22" fill="white" />
    </clipPath>
  </defs>
</svg>
