<svg width="18" height="18" viewBox="0 0 18 18" fill="none" xmlns="http://www.w3.org/2000/svg">
  <g clip-path="url(#clip0_218_9101)">
    <path
      d="M9.00012 17.303C13.5857 17.303 17.303 13.5857 17.303 9.00012C17.303 4.41458 13.5857 0.697266 9.00012 0.697266C4.41458 0.697266 0.697266 4.41458 0.697266 9.00012C0.697266 13.5857 4.41458 17.303 9.00012 17.303Z"
      fill="#C6171C" />
    <path
      d="M9 18C4.0378 18 0 13.9629 0 9C0 4.0378 4.0378 0 9 0C13.9629 0 18 4.0378 18 9C18 13.9629 13.9629 18 9 18ZM9 1.39426C4.80604 1.39426 1.39426 4.80604 1.39426 9C1.39426 13.194 4.80604 16.6057 9 16.6057C13.194 16.6057 16.6057 13.1933 16.6057 9C16.6057 4.80604 13.194 1.39426 9 1.39426Z"
      fill="#C6171C" />
    <path
      d="M7.91257 12.3113C7.72575 12.3113 7.54726 12.2367 7.4155 12.1029L4.84308 9.48863C4.57329 9.21395 4.57677 8.77337 4.85145 8.50288C5.12612 8.2338 5.56741 8.23657 5.83719 8.51125L7.89236 10.5998L12.1442 5.91722C12.4042 5.6321 12.8448 5.61189 13.1285 5.86983C13.4136 6.12847 13.4346 6.56905 13.1759 6.85487L8.42846 12.0833C8.2995 12.2255 8.11824 12.3078 7.92653 12.312C7.92164 12.3113 7.91746 12.3113 7.91257 12.3113Z"
      fill="white" />
  </g>
  <defs>
    <clipPath id="clip0_218_9101">
      <rect width="18" height="18" fill="white" />
    </clipPath>
  </defs>
</svg>
