<svg width="15" height="15" viewBox="0 0 15 15" fill="none" xmlns="http://www.w3.org/2000/svg">
  <g clip-path="url(#clip0_764_130149)">
    <path
      d="M7.5001 14.4191C11.3214 14.4191 14.4191 11.3214 14.4191 7.5001C14.4191 3.67882 11.3214 0.581055 7.5001 0.581055C3.67882 0.581055 0.581055 3.67882 0.581055 7.5001C0.581055 11.3214 3.67882 14.4191 7.5001 14.4191Z"
      fill="#F5545E" />
    <path
      d="M7.5 15C3.36483 15 0 11.6358 0 7.5C0 3.36483 3.36483 0 7.5 0C11.6358 0 15 3.36483 15 7.5C15 11.6358 11.6358 15 7.5 15ZM7.5 1.16188C4.00503 1.16188 1.16188 4.00503 1.16188 7.5C1.16188 10.995 4.00503 13.8381 7.5 13.8381C10.995 13.8381 13.8381 10.9944 13.8381 7.5C13.8381 4.00503 10.995 1.16188 7.5 1.16188Z"
      fill="#F5545E" />
    <path
      d="M6.59373 10.2595C6.43805 10.2595 6.28931 10.1973 6.1795 10.0858L4.03582 7.90725C3.811 7.67835 3.8139 7.31121 4.04279 7.0858C4.27169 6.86156 4.63942 6.86387 4.86425 7.09277L6.57688 8.83326L10.1201 4.93108C10.3368 4.69348 10.7039 4.67663 10.9404 4.89158C11.178 5.10712 11.1954 5.47427 10.9799 5.71245L7.02363 10.0695C6.91617 10.188 6.76512 10.2566 6.60536 10.26C6.60129 10.2595 6.5978 10.2595 6.59373 10.2595Z"
      fill="white" />
  </g>
  <defs>
    <clipPath id="clip0_764_130149">
      <rect width="15" height="15" fill="white" />
    </clipPath>
  </defs>
</svg>
