<svg width="20" height="20" viewBox="0 0 20 20" fill="none" xmlns="http://www.w3.org/2000/svg">
  <path
    d="M1.9295 19C1.69239 19 1.45529 18.9099 1.27514 18.7284C0.913495 18.3667 0.913495 17.7804 1.27514 17.4187L17.4227 1.27123C17.7843 0.909588 18.3706 0.909588 18.7323 1.27123C19.0939 1.63288 19.0939 2.2192 18.7323 2.58107L2.58498 18.7284C2.40348 18.9087 2.16637 19 1.9295 19Z"
    fill="#BDBDBD" stroke="#BDBDBD" stroke-width="0.5" />
  <path
    d="M18.0781 19C17.841 19 17.6042 18.9099 17.4238 18.7284L1.27514 2.58107C0.913495 2.2192 0.913495 1.63288 1.27514 1.27123C1.63679 0.909588 2.22311 0.909588 2.58498 1.27123L18.7323 17.4187C19.0939 17.7804 19.0939 18.3667 18.7323 18.7284C18.5508 18.9087 18.3139 19 18.0781 19Z"
    fill="#BDBDBD" stroke="#BDBDBD" stroke-width="0.5" />
</svg>
