<svg width="40" height="40" viewBox="0 0 40 40" fill="none" xmlns="http://www.w3.org/2000/svg">
<path d="M34.1485 5.852C26.3448 -1.95002 13.6539 -1.95002 5.85022 5.852C-1.95007 13.654 -1.95007 26.3482 5.85022 34.1503C9.75205 38.0504 14.8761 39.9996 20.0002 39.9996C25.1243 39.9996 30.2467 38.0504 34.1485 34.1503C41.9505 26.3483 41.9505 13.654 34.1485 5.852ZM28.2524 25.8964C28.9043 26.5483 28.9043 27.6022 28.2524 28.2541C27.9272 28.5793 27.5004 28.7427 27.0735 28.7427C26.6466 28.7427 26.2197 28.5793 25.8945 28.2541L20.0001 22.358L14.1074 28.2524C13.7806 28.5776 13.3537 28.741 12.9285 28.741C12.5016 28.741 12.0747 28.5776 11.7496 28.2524C11.0976 27.6005 11.0976 26.545 11.7496 25.8947L17.6423 20.0003L11.7479 14.1059C11.096 13.4539 11.096 12.3984 11.7479 11.7481C12.3982 11.0962 13.4537 11.0962 14.1057 11.7481L20.0001 17.6425L25.8945 11.7481C26.5464 11.0962 27.6003 11.0962 28.2522 11.7481C28.9042 12.3984 28.9042 13.4539 28.2522 14.1059L22.3578 20.0003L28.2524 25.8964Z" fill="white"/>
</svg>
