<svg width="20" height="20" viewBox="0 0 20 20" fill="none" xmlns="http://www.w3.org/2000/svg">
<path d="M9 17.5H14.7C14.4042 18.2391 13.8935 18.8724 13.2339 19.3181C12.5742 19.7638 11.7961 20.0014 11 20H4C2.93913 20 1.92172 19.5786 1.17157 18.8284C0.421427 18.0783 0 17.0609 0 16V8C0.00116588 7.02591 0.35712 6.08561 1.00129 5.35493C1.64547 4.62425 2.53374 4.15325 3.5 4.03V12C3.50264 13.4579 4.08295 14.8553 5.11383 15.8862C6.14471 16.917 7.54212 17.4974 9 17.5ZM17.5 4.25H19.62C19.5585 4.15988 19.4881 4.07613 19.41 4L16 0.59C15.9263 0.51206 15.8422 0.444749 15.75 0.39V2.5C15.7521 2.96348 15.9372 3.40738 16.2649 3.73511C16.5926 4.06284 17.0365 4.2479 17.5 4.25ZM17.5 5.75C16.6385 5.74841 15.8128 5.40549 15.2037 4.79634C14.5945 4.18719 14.2516 3.36147 14.25 2.5V0H9C7.93913 0 6.92172 0.421427 6.17157 1.17157C5.42143 1.92172 5 2.93913 5 4V12C5 13.0609 5.42143 14.0783 6.17157 14.8284C6.92172 15.5786 7.93913 16 9 16H16C17.0609 16 18.0783 15.5786 18.8284 14.8284C19.5786 14.0783 20 13.0609 20 12V5.75H17.5Z" fill="black"/>
</svg>
