<svg width="10" height="10" viewBox="0 0 10 10" fill="none" xmlns="http://www.w3.org/2000/svg">
  <g clip-path="url(#clip0_755_72887)">
    <path
      d="M0.159879 3.3237L4.61409 7.77783C4.71701 7.88075 4.85425 7.93726 5.00376 7.93726C5.15026 7.93726 5.28758 7.88075 5.39034 7.77783L9.84041 3.32792C9.94333 3.22492 10 3.0876 10 2.9411C10 2.79459 9.94342 2.6572 9.84041 2.55427L9.51269 2.22655C9.40976 2.12362 9.27236 2.06679 9.12586 2.06679C8.97935 2.06679 8.84204 2.12362 8.73903 2.22655L5.00222 5.96336L1.26126 2.22224C1.15833 2.11939 1.02101 2.06265 0.874428 2.06265C0.727925 2.06265 0.59069 2.11939 0.487683 2.22224L0.159879 2.55012C-0.0532909 2.76337 -0.0532909 3.11045 0.159879 3.3237Z"
      fill="black" />
  </g>
  <defs>
    <clipPath id="clip0_755_72887">
      <rect width="10" height="10" fill="white" transform="translate(10 10) rotate(-180)" />
    </clipPath>
  </defs>
</svg>
