<svg width="40" height="40" viewBox="0 0 40 40" fill="none" xmlns="http://www.w3.org/2000/svg">
<circle opacity="0.5" cx="20" cy="20" r="20" transform="rotate(-180 20 20)" fill="black"/>
<g clip-path="url(#clip0_1942_60972)">
<path d="M18.9191 27.7442L26.0457 20.6175C26.2104 20.4528 26.3008 20.2332 26.3008 19.994C26.3008 19.7596 26.2104 19.5399 26.0457 19.3754L18.9259 12.2553C18.761 12.0907 18.5413 12 18.3069 12C18.0725 12 17.8527 12.0905 17.688 12.2553L17.1636 12.7797C16.999 12.9444 16.908 13.1642 16.908 13.3986C16.908 13.633 16.999 13.8527 17.1636 14.0176L23.1425 19.9965L17.1568 25.982C16.9922 26.1467 16.9014 26.3664 16.9014 26.6009C16.9014 26.8353 16.9922 27.0549 17.1568 27.2197L17.6814 27.7442C18.0226 28.0853 18.5779 28.0853 18.9191 27.7442Z" fill="white"/>
</g>
<defs>
<clipPath id="clip0_1942_60972">
<rect width="16" height="16" fill="white" transform="translate(29.6016 12) rotate(90)"/>
</clipPath>
</defs>
</svg>
