<svg width="40" height="40" viewBox="0 0 40 40" fill="none" xmlns="http://www.w3.org/2000/svg">
<circle opacity="0.5" cx="20" cy="20" r="20" fill="black"/>
<g clip-path="url(#clip0_1942_60966)">
<path d="M21.0809 12.2558L13.9543 19.3825C13.7896 19.5472 13.6992 19.7668 13.6992 20.006C13.6992 20.2404 13.7896 20.4601 13.9543 20.6246L21.0741 27.7447C21.239 27.9093 21.4587 28 21.6931 28C21.9275 28 22.1473 27.9095 22.312 27.7447L22.8364 27.2203C23.001 27.0556 23.092 26.8358 23.092 26.6014C23.092 26.367 23.001 26.1473 22.8364 25.9824L16.8574 20.0035L22.8432 14.018C23.0078 13.8533 23.0986 13.6336 23.0986 13.3991C23.0986 13.1647 23.0078 12.9451 22.8432 12.7803L22.3186 12.2558C21.9774 11.9147 21.4221 11.9147 21.0809 12.2558Z" fill="white"/>
</g>
<defs>
<clipPath id="clip0_1942_60966">
<rect width="16" height="16" fill="white" transform="translate(10.3984 28) rotate(-90)"/>
</clipPath>
</defs>
</svg>
