<svg width="20" height="20" viewBox="0 0 20 20" fill="none" xmlns="http://www.w3.org/2000/svg">
  <g clip-path="url(#clip0_764_123629)">
    <ellipse cx="9.89109" cy="9.92647" rx="9.89109" ry="9.92647" fill="white" />
    <path
      d="M9.89109 0C4.43698 0 0 4.45285 0 9.92647C0 15.4001 4.43698 19.8529 9.89109 19.8529C15.3452 19.8529 19.7822 15.4001 19.7822 9.92647C19.7822 4.45285 15.3452 0 9.89109 0ZM14.2184 10.7537H5.56374C5.10875 10.7537 4.73948 10.3831 4.73948 9.92647C4.73948 9.46985 5.10875 9.09926 5.56374 9.09926H14.2184C14.6734 9.09926 15.0427 9.46985 15.0427 9.92647C15.0427 10.3831 14.6734 10.7537 14.2184 10.7537Z"
      fill="#F5545E" />
  </g>
  <defs>
    <clipPath id="clip0_764_123629">
      <rect width="19.7822" height="19.8529" fill="white" />
    </clipPath>
  </defs>
</svg>
