<svg width="21" height="20" viewBox="0 0 21 20" fill="none" xmlns="http://www.w3.org/2000/svg">
  <path
    d="M10.1648 19.3104C15.3068 19.3104 19.4752 15.142 19.4752 10C19.4752 4.85808 15.3068 0.689697 10.1648 0.689697C5.02288 0.689697 0.854492 4.85808 0.854492 10C0.854492 15.142 5.02288 19.3104 10.1648 19.3104Z"
    fill="white" />
  <g clip-path="url(#clip0_140_11390)">
    <path fill-rule="evenodd" clip-rule="evenodd"
      d="M10.165 20C12.1429 20 14.0763 19.4135 15.7207 18.3147C17.3652 17.2159 18.647 15.6541 19.4038 13.8268C20.1607 11.9996 20.3587 9.98891 19.9729 8.0491C19.587 6.10929 18.6346 4.32746 17.2361 2.92894C15.8376 1.53041 14.0558 0.578004 12.1159 0.192152C10.1761 -0.193701 8.16547 0.00433281 6.3382 0.761209C4.51094 1.51809 2.94916 2.79981 1.85034 4.4443C0.751529 6.08879 0.165039 8.02219 0.165039 10C0.165039 12.6522 1.21861 15.1957 3.09397 17.0711C4.96933 18.9464 7.51287 20 10.165 20ZM7.14348 14.5305H4.79762C4.24145 14.5305 3.96332 14.5305 3.79676 14.4227C3.70802 14.3654 3.63408 14.2879 3.58097 14.1965C3.52786 14.1052 3.49708 14.0026 3.49113 13.8971C3.47996 13.6992 3.6177 13.4579 3.89324 12.9752L9.02957 3.97696C9.3091 3.48719 9.44887 3.24258 9.62676 3.15118C9.72148 3.1026 9.82638 3.07723 9.93283 3.07715C10.0393 3.07706 10.1442 3.10228 10.239 3.15071C10.417 3.24157 10.5571 3.48665 10.8374 3.97563L12.022 6.04391C12.2258 6.39969 12.3277 6.57766 12.3725 6.76532C12.4212 6.96967 12.4212 7.1826 12.3725 7.38696C12.3279 7.57446 12.2261 7.75274 12.0226 8.10876L8.95121 13.4818C8.74473 13.8431 8.64152 14.0237 8.50004 14.1587C8.34605 14.3057 8.15933 14.414 7.95527 14.4747C7.76801 14.5305 7.55988 14.5305 7.14348 14.5305ZM15.513 14.5305H12.7932C12.2319 14.5305 11.9513 14.5305 11.7842 14.4218C11.6952 14.364 11.6211 14.2859 11.5682 14.1939C11.5152 14.102 11.4848 13.9987 11.4795 13.8927C11.4696 13.6938 11.6108 13.4515 11.8936 12.967L13.2512 10.6377C13.5301 10.1592 13.6696 9.92 13.8461 9.8304C13.9402 9.78262 14.0443 9.75768 14.1498 9.7576C14.2553 9.75752 14.3594 9.7823 14.4536 9.82993C14.6303 9.91922 14.77 10.1581 15.0496 10.6363L16.4118 12.9656C16.6953 13.4505 16.8371 13.6929 16.8274 13.892C16.8222 13.998 16.7919 14.1014 16.739 14.1934C16.6861 14.2855 16.6121 14.3637 16.5231 14.4216C16.3563 14.5305 16.075 14.5305 15.513 14.5305Z"
      fill="#E84142" />
  </g>
  <defs>
    <clipPath id="clip0_140_11390">
      <rect width="20" height="20" fill="white" transform="translate(0.165039)" />
    </clipPath>
  </defs>
</svg>
