<svg width="20" height="20" viewBox="0 0 20 20" fill="none" xmlns="http://www.w3.org/2000/svg">
  <path
    d="M10 20C15.5228 20 20 15.5228 20 10C20 4.47715 15.5228 0 10 0C4.47715 0 0 4.47715 0 10C0 15.5228 4.47715 20 10 20Z"
    fill="url(#paint0_linear_140_11396)" />
  <path
    d="M7.04794 8.78706L9.9999 5.8351L12.9533 8.78834L14.6709 7.07074L9.9999 2.3999L5.33046 7.06934L7.048 8.78694L7.04794 8.78706ZM2.3999 9.9999L4.11756 8.282L5.8351 9.99954L4.11744 11.7172L2.3999 9.9999ZM7.04794 11.2129L9.9999 14.1647L12.9532 11.2115L14.6717 12.9282L14.6709 12.9291L9.9999 17.5999L5.33046 12.9305L5.32803 12.928L7.04812 11.2127L7.04794 11.2129ZM14.1647 10.0006L15.8824 8.28297L17.5999 10.0005L15.8823 11.7182L14.1647 10.0006Z"
    fill="#F3BA2F" />
  <path
    d="M11.7421 10.0002H11.7428L10.0001 8.25732L8.71197 9.54509L8.56399 9.69314L8.25878 9.99841L8.25635 10.0008L8.25878 10.0033L10.0001 11.7448L11.743 10.002L11.7438 10.001L11.7422 10.0002"
    fill="#F3BA2F" />
  <defs>
    <linearGradient id="paint0_linear_140_11396" x1="16" y1="2" x2="4.8" y2="18" gradientUnits="userSpaceOnUse">
      <stop stop-color="#303030" />
      <stop offset="1" stop-color="#080808" />
    </linearGradient>
  </defs>
</svg>
