<svg width="26" height="27" viewBox="0 0 26 27" fill="none" xmlns="http://www.w3.org/2000/svg">
  <path
    d="M0.500003 13.0047C0.500003 19.9065 6.09327 25.5047 13 25.5047C19.9018 25.5047 25.5 19.9115 25.5 13.0047C25.5 6.09812 19.9019 0.5 12.9953 0.5C6.09346 0.5 0.495276 6.09807 0.500003 13.0047ZM0.500003 13.0047H1L0.500003 13.0051C0.500003 13.005 0.500003 13.0048 0.500003 13.0047Z"
    fill="white" stroke="#F2F2F2" />
  <path
    d="M16.9309 10.3905C16.6428 10.2252 16.2745 10.2252 15.9486 10.3905L13.6535 11.7506L12.095 12.6148L9.84238 13.9702C9.5543 14.1354 9.18594 14.1354 8.86009 13.9702L7.09857 12.8981C6.8105 12.7329 6.60743 12.4023 6.60743 12.0339V9.97488C6.60743 9.6443 6.77272 9.31845 7.09857 9.11066L8.86009 8.08114C9.14816 7.91585 9.51652 7.91585 9.84238 8.08114L11.6039 9.15316C11.892 9.31845 12.095 9.64903 12.095 10.0174V11.3775L13.6535 10.4708V9.07288C13.6535 8.7423 13.4882 8.41644 13.1623 8.20865L9.88488 6.2724C9.5968 6.10712 9.22844 6.10712 8.90259 6.2724L5.54486 8.25115C5.219 8.41644 5.05371 8.74702 5.05371 9.07288V12.9406C5.05371 13.2712 5.219 13.5971 5.54486 13.8049L8.86481 15.7411C9.15288 15.9064 9.52124 15.9064 9.8471 15.7411L12.0998 14.4235L13.6582 13.5168L15.9109 12.1992C16.1989 12.0339 16.5673 12.0339 16.8931 12.1992L18.6547 13.2287C18.9427 13.394 19.1458 13.7246 19.1458 14.0929V16.152C19.1458 16.4826 18.9805 16.8084 18.6547 17.0162L16.9356 18.0457C16.6476 18.211 16.2792 18.211 15.9534 18.0457L14.1871 17.0162C13.899 16.8509 13.696 16.5203 13.696 16.152V14.8344L12.1375 15.7411V17.1012C12.1375 17.4318 12.3028 17.7576 12.6287 17.9654L15.9486 19.9017C16.2367 20.067 16.6051 20.067 16.9309 19.9017L20.2509 17.9654C20.5389 17.8001 20.742 17.4696 20.742 17.1012V13.1909C20.742 12.8604 20.5767 12.5345 20.2509 12.3267L16.9309 10.3905Z"
    fill="#8247E5" />
</svg>
