<svg width="20" height="20" viewBox="0 0 20 20" fill="none" xmlns="http://www.w3.org/2000/svg">
  <g clip-path="url(#clip0_140_11913)">
    <g filter="url(#filter0_i_140_11913)">
      <path
        d="M10 20C15.5228 20 20 15.5228 20 10C20 4.47715 15.5228 0 10 0C4.47715 0 0 4.47715 0 10C0 15.5228 4.47715 20 10 20Z"
        fill="#F7931A" />
    </g>
    <path
      d="M16.1882 5.31753C16.047 5.31753 15.9293 5.27047 15.8352 5.15283C14.3764 3.41165 12.2587 2.42341 9.99992 2.42341C9.74109 2.42341 9.55286 2.21165 9.55286 1.97636C9.55286 1.71753 9.76462 1.5293 9.99992 1.5293C12.5176 1.5293 14.9176 2.63518 16.5176 4.58812C16.6823 4.77636 16.6587 5.05871 16.4705 5.22342C16.3999 5.294 16.2823 5.31753 16.1882 5.31753Z"
      fill="white" />
    <path
      d="M3.83531 5.31753C3.74119 5.31753 3.62354 5.294 3.55296 5.22342C3.36472 5.05871 3.34119 4.77636 3.5059 4.58812C5.12943 2.63518 7.5059 1.5293 10.0235 1.5293C10.2824 1.5293 10.4706 1.74106 10.4706 1.97636C10.4706 2.23518 10.2588 2.42341 10.0235 2.42341C7.76472 2.42341 5.64707 3.41165 4.18825 5.15283C4.09413 5.27047 3.95295 5.31753 3.83531 5.31753Z"
      fill="white" />
    <path
      d="M9.99992 11.7411C9.74109 11.7411 9.55286 11.5293 9.55286 11.294V1.97636C9.55286 1.71753 9.76462 1.5293 9.99992 1.5293C10.2587 1.5293 10.447 1.74106 10.447 1.97636V11.294C10.447 11.5528 10.2587 11.7411 9.99992 11.7411Z"
      fill="white" />
    <path
      d="M17.7882 6.6112C17.6941 6.37591 17.4118 6.28179 17.2 6.37591C16.9647 6.47003 16.8706 6.75238 16.9647 6.96415C17.3882 7.92885 17.6 8.94062 17.6 9.99944C17.6 12.1877 16.6824 14.2112 15.0824 15.6465C14.9412 15.7641 14.7529 15.7877 14.6118 15.67L10.2588 12.6583C10.2353 12.6347 10.2118 12.6347 10.1882 12.6112C10.1412 12.5877 10.0941 12.5877 10.0471 12.5641C10.0471 12.5641 10.0471 12.5641 10.0235 12.5641C10.0235 12.5641 10.0235 12.5641 10 12.5641C9.95295 12.5641 9.90589 12.5877 9.85883 12.6112C9.8353 12.6347 9.81177 12.6347 9.78824 12.6583L5.41177 15.6936C5.2706 15.7877 5.08236 15.7877 4.94118 15.67C3.34118 14.2347 2.42354 12.2112 2.42354 10.023C2.42354 8.96414 2.6353 7.95238 3.05883 7.0112C3.15295 6.77591 3.05883 6.49356 2.82354 6.39944C2.58824 6.30532 2.32942 6.39944 2.2353 6.63473C1.76471 7.71709 1.52942 8.8465 1.52942 10.023C1.52942 10.7053 1.60001 11.3877 1.76471 12.023C1.92942 12.6583 2.14118 13.27 2.44707 13.8583C3.0353 14.9877 3.88236 15.9994 4.89412 16.7759L4.91765 16.7994C4.91765 16.7994 4.94118 16.7994 4.94118 16.823C4.94118 16.823 4.96471 16.823 4.96471 16.8465H4.98824C4.98824 16.8465 4.98824 16.8465 5.01177 16.8465H5.0353C5.0353 16.8465 5.0353 16.8465 5.05883 16.8465H5.08236C5.08236 16.8465 5.08236 16.8465 5.10589 16.8465C5.10589 16.8465 5.10589 16.8465 5.12942 16.8465C5.12942 16.8465 5.12942 16.8465 5.15295 16.8465C5.15295 16.8465 5.15295 16.8465 5.17648 16.8465C5.17648 16.8465 5.17648 16.8465 5.20001 16.8465C5.20001 16.8465 5.20001 16.8465 5.22354 16.8465H5.24707C5.24707 16.8465 5.24707 16.8465 5.2706 16.8465C5.2706 16.8465 5.2706 16.8465 5.29412 16.8465H5.31765C5.34118 16.8465 5.36471 16.823 5.36471 16.823C5.36471 16.823 5.38824 16.823 5.38824 16.7994L9.76471 13.7171C9.88236 13.623 10.0706 13.623 10.1882 13.7171L14.5882 16.7994L14.6118 16.823C14.6353 16.823 14.6588 16.8465 14.6588 16.8465H14.6824C14.6824 16.8465 14.6824 16.8465 14.7059 16.8465C14.7059 16.8465 14.7059 16.8465 14.7294 16.8465H14.7529C14.7529 16.8465 14.7529 16.8465 14.7765 16.8465C14.7765 16.8465 14.7765 16.8465 14.8 16.8465C14.8 16.8465 14.8 16.8465 14.8235 16.8465C14.8235 16.8465 14.8235 16.8465 14.8471 16.8465C14.8471 16.8465 14.8471 16.8465 14.8706 16.8465H14.8941C14.8941 16.8465 14.8941 16.8465 14.9177 16.8465H14.9412C14.9412 16.8465 14.9412 16.8465 14.9647 16.8465H14.9882C14.9882 16.8465 15.0118 16.8465 15.0118 16.823C15.0118 16.823 15.0353 16.823 15.0353 16.7994L15.0588 16.7759C16.0706 15.9994 16.9177 14.9877 17.5059 13.8583C17.8118 13.27 18.0235 12.6583 18.1882 12.023C18.3529 11.3641 18.4235 10.7053 18.4235 10.023C18.4941 8.82297 18.2588 7.69356 17.7882 6.6112Z"
      fill="white" />
    <path
      d="M10.0001 14.3765C9.95301 14.3765 9.88242 14.4 9.83536 14.4235L8.9883 15.0353C8.91771 15.0823 8.94124 15.1765 9.01183 15.2C9.34124 15.2706 9.64712 15.2941 9.97654 15.2941C10.3059 15.2941 10.6354 15.2706 10.9412 15.2C11.0118 15.1765 11.0354 15.0823 10.9648 15.0353L10.1177 14.4235C10.1177 14.4 10.0707 14.3765 10.0001 14.3765Z"
      fill="white" />
    <path
      d="M10 15.9527C9.36472 15.9527 8.77649 15.8586 8.18825 15.6704C8.1412 15.6469 8.07061 15.6704 8.02355 15.6939L7.29414 16.2116C7.24708 16.2351 7.27061 16.2822 7.29414 16.3057C8.1412 16.6586 9.05884 16.8469 9.97649 16.8469C10.8941 16.8469 11.8118 16.6586 12.6588 16.3057C12.7059 16.2822 12.7059 16.2351 12.6588 16.2116L11.9294 15.6939C11.8824 15.6704 11.8353 15.6469 11.7647 15.6704C11.2471 15.8586 10.6353 15.9527 10 15.9527Z"
      fill="white" />
    <path
      d="M10 17.5762C8.80002 17.5762 7.64708 17.2938 6.63531 16.7762C6.56472 16.7527 6.49413 16.7527 6.44708 16.7997L5.95296 17.1527C5.83531 17.2233 5.85884 17.388 5.97649 17.4585C6.21178 17.5997 6.4706 17.7174 6.72943 17.8115C7.76472 18.2585 8.8706 18.4703 10 18.4703C11.1294 18.4703 12.2353 18.2585 13.2706 17.8115C13.5294 17.6938 13.7883 17.5762 14.0235 17.4585C14.1412 17.388 14.1412 17.2233 14.0471 17.1527L13.553 16.7997C13.5059 16.7527 13.4353 16.7527 13.3647 16.7762C12.353 17.2938 11.2 17.5762 10 17.5762Z"
      fill="white" />
  </g>
  <defs>
    <filter id="filter0_i_140_11913" x="0" y="0" width="20" height="20" filterUnits="userSpaceOnUse"
      color-interpolation-filters="sRGB">
      <feFlood flood-opacity="0" result="BackgroundImageFix" />
      <feBlend mode="normal" in="SourceGraphic" in2="BackgroundImageFix" result="shape" />
      <feColorMatrix in="SourceAlpha" type="matrix" values="0 0 0 0 0 0 0 0 0 0 0 0 0 0 0 0 0 0 127 0"
        result="hardAlpha" />
      <feOffset />
      <feGaussianBlur stdDeviation="0.5" />
      <feComposite in2="hardAlpha" operator="arithmetic" k2="-1" k3="1" />
      <feColorMatrix type="matrix" values="0 0 0 0 0 0 0 0 0 0 0 0 0 0 0 0 0 0 0.25 0" />
      <feBlend mode="normal" in2="shape" result="effect1_innerShadow_140_11913" />
    </filter>
    <clipPath id="clip0_140_11913">
      <rect width="20" height="20" fill="white" />
    </clipPath>
  </defs>
</svg>
